<?xml version="1.0" encoding="utf-8"?>
<!-- Generator: Adobe Illustrator 17.1.0, SVG Export Plug-In . SVG Version: 6.00 Build 0)  -->
<!DOCTYPE svg PUBLIC "-//W3C//DTD SVG 1.1//EN" "http://www.w3.org/Graphics/SVG/1.1/DTD/svg11.dtd">
<svg version="1.1" id="Layer_1" xmlns="http://www.w3.org/2000/svg" xmlns:xlink="http://www.w3.org/1999/xlink" x="0px" y="0px"
	 viewBox="0 0 539 540" enable-background="new 0 0 539 540" xml:space="preserve">
<g>
	<path fill="#FEFEFE" d="M22,519c0-166.7,0-333.3,0-500c166.7,0,333.3,0,500,0c0,166.7,0,333.3,0,500C355.3,519,188.7,519,22,519z
		 M177.8,292c0.1-0.8,0.2-1.7,0.2-2.5c0-38.3,0-76.6,0-114.9c0-1.1-0.2-2.2-0.3-3.3c-49,0-97.7,0-146.6,0c0,2.2,0,4,0,5.8
		c0,30.8,0,61.6,0,92.4c0,20.1,0.1,40.3,0.2,60.4c-0.1,0.8-0.2,1.7-0.2,2.5c0,58.1,0,116.2,0,174.3c0,1.3,0.2,2.5,0.3,3.8
		c49,0,97.7,0,146.7,0c0-2.3,0-4.3,0-6.3c0-68.4,0-136.9,0-205.3C178,296.7,177.9,294.4,177.8,292z M225.2,279c-0.1,1-0.2,2-0.2,3
		c0,75.1,0,150.3,0,225.4c0,1.1,0.2,2.2,0.3,3.2c96,0,191.7,0,287.7,0c0-1.8,0-3.3,0-4.8c0-96.8,0-193.6,0-290.4
		c0-1.8-0.1-3.7-0.2-5.5c0-12.9,0-25.8,0-38.7c-96.2,0-191.9,0-287.7,0C225.2,207.5,225.2,243.3,225.2,279z M512.8,29.4
		c-160.8,0-321.2,0-481.5,0c0,31.6,0,62.9,0,94.4c160.6,0,321,0,481.5,0C512.8,92.2,512.8,60.9,512.8,29.4z"/>
	<path fill="#E20084" d="M512.8,210.1c0.1,1.8,0.2,3.7,0.2,5.5c0,96.8,0,193.6,0,290.4c0,1.5,0,3,0,4.8c-96,0-191.7,0-287.7,0
		c-0.1-1-0.3-2.1-0.3-3.2c0-75.1,0-150.3,0-225.4c0-1,0.1-2,0.2-3c5.7,0,11.3,0.1,17-0.1c1.3-0.1,3.5-1.2,3.6-2
		c0.4-2.9,2.2-2.7,4.2-2.9c3.6-0.4,8.2,2,10-3.5c0.1-0.4,1.8-0.4,2.8-0.4c3.2-0.1,6.3,0,9.5-0.1c1,0,2.6-0.1,2.8-0.5
		c1.7-5.4,6.2-2.8,9.6-3.5c1.5-0.3,2.9-0.9,4.2-1.6c1.4-0.7,2.7-2.1,4.1-2.3c3-0.4,6-0.1,9-0.1c2.5,0,5.1,0.5,5.3-3.4
		c0-0.6,2-1.4,3.1-1.5c3.3-0.2,6.7,0.1,10-0.2c1.2-0.1,2.9-0.8,3.5-1.8c1.6-2.8,2.6-2.9,4.2,0c1.5,2.6,6.9,2.5,8.9,0.4
		c1.1-1.2,2.9-2.1,4.5-2.5c2.4-0.5,6.6,0.6,7.2-0.5c3-5.8,8-3.3,12.1-3.5c3.7-0.2,6.9-0.1,7-4.9c4-0.2,9.8,0.9,10.9-0.8
		c3.5-5.7,8.2-2.5,12.3-3.4c1.7-0.4,4.9,0,5.1-0.7c1.4-4.4,4.8-3.5,7.7-3.3c3.8,0.2,6.9-0.1,7-5.1c4.3,0,8.3,0.1,12.3-0.1
		c1.3-0.1,2.6-0.9,3.8-1.5c1.4-0.7,2.7-2.1,4.1-2.3c3.1-0.4,6.3,0,9.5-0.2c1.1-0.1,2.3-0.8,3.4-1.4c1.5-0.8,3-2.3,4.5-2.4
		c5.8-0.3,11.6-0.1,17.5-0.2c1.3,0,2.7-0.6,4-1.2c1.7-0.8,3.2-2.3,4.9-2.6c2.9-0.4,6,0.1,9-0.2c1.2-0.1,3.1-1.2,3.2-2
		c0.3-2.9,2.1-2.7,4.2-3c3.6-0.4,8.2,2,10-3.5c0.1-0.4,1.8-0.4,2.8-0.4C506.8,210,509.8,210,512.8,210.1z"/>
	<path fill="#90C947" d="M512.8,29.4c0,31.6,0,62.8,0,94.4c-160.6,0-320.9,0-481.5,0c0-31.5,0-62.7,0-94.4
		C191.6,29.4,352,29.4,512.8,29.4z"/>
	<path fill="#3C9AD7" d="M177.8,292c0.1,2.3,0.2,4.7,0.2,7c0,68.4,0,136.9,0,205.3c0,2,0,4,0,6.3c-49,0-97.6,0-146.7,0
		c-0.1-1.2-0.3-2.5-0.3-3.8c0-58.1,0-116.2,0-174.3c0-0.8,0.1-1.7,0.2-2.5c2.9-0.4,7.5,0.1,8.2-1.3c1.7-3.3,3.8-2.6,6.1-2.7
		c3.5-0.2,9.1,1,10.1-0.6c3.4-5.7,8.2-2.7,12.3-3.4c2.7-0.5,6.3,1,6.5-3.8c0-0.4,1.8-1.1,2.9-1.2c3.3-0.2,6.7,0,10-0.1
		c1.2-0.1,3.2-0.5,3.4-1.2c0.8-3.4,3.3-2.7,5.5-2.7c3.2-0.1,6.3,0.1,9.5-0.1c1,0,2.9-0.5,3-1c0.7-3.7,3.5-2.8,5.9-2.9
		c3.5-0.1,9.1,1.1,10.1-0.5c3.6-5.7,8.5-2.8,12.8-3.4c2.7-0.4,5.9,0.8,6.1-3.8c0-0.5,1.8-1.2,2.8-1.2c3.2-0.2,6.3,0,9.5-0.1
		c1.1,0,3.1,0,3.3-0.4c1.9-5.5,6.5-2.9,10.1-3.6c1.3-0.3,3.5-0.7,3.7-1.4C173.4,291.2,175.8,292.2,177.8,292z"/>
	<path fill="#F5219C" d="M512.8,210.1c-3,0-6-0.1-9,0c-1,0-2.7,0-2.8,0.4c-1.9,5.5-6.5,3.1-10,3.5c-2.1,0.2-3.9,0-4.2,3
		c-0.1,0.8-2,1.9-3.2,2c-3,0.3-6-0.2-9,0.2c-1.7,0.3-3.2,1.8-4.9,2.6c-1.2,0.6-2.6,1.2-4,1.2c-5.8,0.1-11.7-0.1-17.5,0.2
		c-1.5,0.1-3,1.6-4.5,2.4c-1.1,0.6-2.2,1.3-3.4,1.4c-3.2,0.2-6.3-0.2-9.5,0.2c-1.4,0.2-2.7,1.6-4.1,2.3c-1.2,0.6-2.5,1.4-3.8,1.5
		c-4,0.2-8,0.1-12.3,0.1c-0.1,5-3.2,5.3-7,5.1c-2.9-0.2-6.3-1.1-7.7,3.3c-0.2,0.7-3.4,0.3-5.1,0.7c-4.1,0.9-8.8-2.3-12.3,3.4
		c-1.1,1.8-6.9,0.6-10.9,0.8c-0.1,4.7-3.3,4.7-7,4.9c-4.1,0.2-9.1-2.3-12.1,3.5c-0.6,1.1-4.8,0-7.2,0.5c-1.6,0.3-3.4,1.3-4.5,2.5
		c-2,2.1-7.4,2.2-8.9-0.4c-1.6-2.8-2.6-2.8-4.2,0c-0.5,1-2.3,1.7-3.5,1.8c-3.3,0.2-6.7,0-10,0.2c-1.1,0.1-3.1,0.9-3.1,1.5
		c-0.1,3.9-2.8,3.4-5.3,3.4c-3,0-6-0.2-9,0.1c-1.4,0.2-2.7,1.6-4.1,2.3c-1.4,0.7-2.8,1.3-4.2,1.6c-3.3,0.7-7.8-2-9.6,3.5
		c-0.1,0.4-1.8,0.5-2.8,0.5c-3.2,0.1-6.3,0-9.5,0.1c-1,0-2.7,0-2.8,0.4c-1.9,5.5-6.5,3.1-10,3.5c-2.1,0.2-3.9,0-4.2,2.9
		c-0.1,0.8-2.3,1.9-3.6,2c-5.7,0.2-11.3,0.1-17,0.1c0-35.8,0-71.6,0-107.7c95.8,0,191.5,0,287.7,0
		C512.8,184.2,512.8,197.1,512.8,210.1z"/>
	<path fill="#50AEDE" d="M177.8,292c-2,0.2-4.4-0.8-5.1,2.5c-0.2,0.7-2.4,1.2-3.7,1.4c-3.5,0.7-8.1-1.9-10.1,3.6
		c-0.2,0.5-2.2,0.4-3.3,0.4c-3.2,0.1-6.3-0.1-9.5,0.1c-1,0.1-2.8,0.8-2.8,1.2c-0.1,4.6-3.4,3.4-6.1,3.8c-4.3,0.7-9.2-2.3-12.8,3.4
		c-1,1.6-6.6,0.4-10.1,0.5c-2.4,0.1-5.1-0.8-5.9,2.9c-0.1,0.5-1.9,1-3,1c-3.2,0.1-6.3,0-9.5,0.1c-2.2,0-4.7-0.7-5.5,2.7
		c-0.1,0.6-2.2,1.1-3.4,1.2c-3.3,0.2-6.7,0-10,0.1c-1,0-2.8,0.7-2.9,1.2c-0.2,4.9-3.8,3.4-6.5,3.8c-4.1,0.7-8.9-2.3-12.3,3.4
		c-1,1.6-6.6,0.4-10.1,0.6c-2.3,0.1-4.5-0.6-6.1,2.7c-0.7,1.5-5.3,1-8.2,1.3c-0.1-20.1-0.1-40.3-0.2-60.4c0-30.8,0-61.6,0-92.4
		c0-1.8,0-3.6,0-5.8c49,0,97.6,0,146.6,0c0.1,1.1,0.3,2.2,0.3,3.3c0,38.3,0,76.6,0,114.9C178,290.4,177.9,291.2,177.8,292z"/>
</g>
</svg>
