<?xml version="1.0" encoding="utf-8"?>
<!-- Generator: Adobe Illustrator 17.1.0, SVG Export Plug-In . SVG Version: 6.00 Build 0)  -->
<!DOCTYPE svg PUBLIC "-//W3C//DTD SVG 1.1//EN" "http://www.w3.org/Graphics/SVG/1.1/DTD/svg11.dtd">
<svg version="1.1" id="Layer_1" xmlns="http://www.w3.org/2000/svg" xmlns:xlink="http://www.w3.org/1999/xlink" x="0px" y="0px"
	 viewBox="0 0 1000 1000" enable-background="new 0 0 1000 1000" xml:space="preserve">
<g>
	<g>
		<path fill="#FEFEFE" d="M-11,1014.2c0-341.7,0-683.5,0-1025.2c341.7,0,683.5,0,1025.2,0c0,341.7,0,683.5,0,1025.2
			C672.5,1014.2,330.7,1014.2-11,1014.2z M978.4,941.4c4.8,0.8,3-2.9,3-4.9c0.1-302.9,0.1-605.8,0-908.7c0-7.5,0-14.9,0-22.5
			c-320.5,0-640.3,0-960.7,0c0,9.2,0,18.2,0,27.2c0,300.9,0,601.8,0,902.7c0,1.3-0.4,2.9,0.1,3.9c0.5,1,2.1,1.6,3.1,2.3
			c0.6,6.4,2.7,8.6,9,8.7c2.2,0.1,4.3,0,6.5,0c307.7,0,615.5,0,923.2,0c1.8,0,3.7,0,5.5,0C975.4,950,977.4,948.3,978.4,941.4z"/>
		<path fill="#5FF800" d="M24.1,941.4c-1.1-0.7-2.6-1.3-3.1-2.3c-0.5-1-0.1-2.6-0.1-3.9c0-300.9,0-601.8,0-902.7c0-9,0-17.9,0-27.2
			c320.4,0,640.2,0,960.7,0c0,7.6,0,15.1,0,22.5c0,302.9,0,605.8,0,908.7c0,1.9,1.7,5.7-3,4.9c-4.5,0-9,0-13.5,0
			c-309.3,0-618.6,0-927.8,0C32.7,941.4,28.4,941.4,24.1,941.4z M940.9,901.1c0-285.6,0-570.7,0-855.8c-293.4,0-586.4,0-879.6,0
			c0,285.4,0,570.5,0,855.8C354.6,901.1,647.6,901.1,940.9,901.1z"/>
		<path fill="#202E18" d="M24.1,941.4c4.3,0,8.7,0,13,0c309.3,0,618.6,0,927.8,0c4.5,0,9,0,13.5,0c-1,6.9-3,8.7-10.1,8.8
			c-1.8,0-3.7,0-5.5,0c-307.7,0-615.5,0-923.2,0c-2.2,0-4.3,0-6.5,0C26.8,949.9,24.6,947.8,24.1,941.4z"/>
		<path fill="#202E18" d="M940.9,901.1c-293.3,0-586.3,0-879.6,0c0-285.3,0-570.4,0-855.8c293.2,0,586.2,0,879.6,0
			C940.9,330.4,940.9,615.5,940.9,901.1z M228,660c21.7,1.4,43.3,1.4,64.7-2.8c36.4-7.2,68.8-22.2,96.3-47.3
			c25.6-23.4,42.6-52.3,52.9-85.2c12.5-40,15.6-81,11.6-122.6c-1.8-19-4.5-37.6-10.2-55.8c-11.8-37.8-32.1-69.7-64.7-93
			c-33.5-24-71.8-34.1-112.3-34.8c-37.9-0.7-75.9,0.9-113.9,1.6c-5.7,0.1-6.3,1-6.3,7.6c0,94.4,0,188.7,0,283.1c0,47.5,0,95,0,142.5
			c0,5.9,0.8,6.8,6.5,6.8C177.7,660,202.8,660,228,660z M674.5,414.3c0.3,0.1,0.5,0.1,0.8,0.2c4.6,26,9,52,13.8,78
			c9.9,53.5,20,106.9,29.8,160.4c0.9,4.7,3,6.4,7.7,6.4c21-0.1,42-0.2,63,0c4.4,0,6.3-1.6,7.2-5.7c2.5-11,5.4-22,8.1-33
			c23.2-93.3,46.4-186.6,69.6-279.9c1.5-5.9,1-6.5-4.8-6.5c-19,0-38,0.1-57-0.1c-4,0-6,1.2-6.8,5.4c-1.7,9.8-3.9,19.6-5.7,29.4
			c-11.8,67-23.6,134-35.3,201c-0.8,4.7-1.7,9.5-2.6,14.2c-1.5-0.8-1.8-1.5-1.9-2.2c-5.7-34.3-11.2-68.6-17-102.9
			c-4.1-24.3-8.8-48.6-13.1-72.9c-3.8-21.6-7.5-43.3-11.2-64.9c-1.2-6.8-1.6-7.1-8.3-7.1c-20.8,0-41.7,0.1-62.5-0.1
			c-5-0.1-7.2,1.6-8.1,6.4c-2,10.3-4.5,20.5-6.5,30.7c-12.9,64.6-25.7,129.2-38.6,193.7c-1.1,5.7-2,11.5-3,17.3
			c-1.7-0.9-2.4-1.8-2.5-2.7c-1.1-7.4-2-14.8-3.2-22.2c-5.5-35.3-10.9-70.7-16.5-106c-3.2-20.3-6.9-40.5-10.4-60.7
			c-2.9-16.9-5.9-33.9-8.7-50.8c-0.7-4-2.6-5.6-6.7-5.6c-20.8,0.1-41.7,0-62.5,0.1c-5.7,0-6.8,1.5-5.6,6.9
			c7.1,32.5,14.2,64.9,21.4,97.4c12.5,55.8,25.2,111.6,37.9,167.3c3.5,15.4,6.8,30.8,10.3,46.3c1.4,6.4,2.5,7.2,9.2,7.2
			c20.8,0,41.7-0.1,62.5,0.1c4.1,0,6.2-1.7,7.1-5.4c1.5-6.5,3.1-12.9,4.5-19.4c12.9-60.3,25.8-120.7,38.5-181
			C669.9,440.4,672.1,427.3,674.5,414.3z"/>
		<path fill="#5FF800" d="M228,660c-25.2,0-50.3,0-75.5,0c-5.7,0-6.5-0.9-6.5-6.8c0-47.5,0-95,0-142.5c0-94.4,0-188.7,0-283.1
			c0-6.6,0.6-7.5,6.3-7.6c38-0.7,76-2.2,113.9-1.6c40.5,0.7,78.7,10.8,112.3,34.8c32.6,23.3,52.9,55.2,64.7,93
			c5.7,18.2,8.4,36.9,10.2,55.8c4,41.7,1,82.6-11.6,122.6c-10.3,32.9-27.3,61.7-52.9,85.2c-27.5,25.2-59.9,40.2-96.3,47.3
			C271.3,661.4,249.6,661.4,228,660z M218.2,597.2c14.9,0,29.4,0.5,43.8-0.1c20.1-0.8,39-6.6,56.1-17.4c28.6-18,44.6-45.1,53.7-76.8
			c8.3-29.2,10.4-59.1,8.4-89.4c-1.2-18.2-4-36-10-53.2c-12.7-36-36.3-61.1-73.3-72.6c-24.2-7.5-49-6.2-73.8-4.9
			c-1.6,0.1-3.2,0.4-4.8,0.7C218.2,387.7,218.2,491.7,218.2,597.2z"/>
		<path fill="#5FF800" d="M674.5,414.3c-2.4,13-4.6,26.1-7.4,39c-12.7,60.4-25.6,120.7-38.5,181c-1.4,6.5-3,13-4.5,19.4
			c-0.9,3.7-3,5.4-7.1,5.4c-20.8-0.1-41.7-0.1-62.5-0.1c-6.7,0-7.8-0.8-9.2-7.2c-3.4-15.4-6.8-30.9-10.3-46.3
			c-12.6-55.8-25.3-111.5-37.9-167.3c-7.3-32.4-14.3-64.9-21.4-97.4c-1.2-5.4,0-6.9,5.6-6.9c20.8,0,41.7,0.1,62.5-0.1
			c4.1,0,6,1.5,6.7,5.6c2.8,17,5.8,33.9,8.7,50.8c3.5,20.2,7.1,40.5,10.4,60.7c5.6,35.3,11.1,70.7,16.5,106
			c1.1,7.4,2.1,14.8,3.2,22.2c0.1,1,0.8,1.9,2.5,2.7c1-5.8,1.9-11.5,3-17.3c12.8-64.6,25.7-129.2,38.6-193.7
			c2.1-10.3,4.6-20.5,6.5-30.7c0.9-4.8,3.1-6.5,8.1-6.4c20.8,0.3,41.7,0.1,62.5,0.1c6.8,0,7.1,0.2,8.3,7.1
			c3.8,21.6,7.4,43.3,11.2,64.9c4.3,24.3,8.9,48.5,13.1,72.9c5.8,34.3,11.4,68.6,17,102.9c0.1,0.7,0.5,1.4,1.9,2.2
			c0.9-4.7,1.8-9.5,2.6-14.2c11.8-67,23.5-134,35.3-201c1.7-9.8,4-19.6,5.7-29.4c0.7-4.2,2.7-5.4,6.8-5.4c19,0.2,38,0.1,57,0.1
			c5.8,0,6.3,0.7,4.8,6.5c-23.2,93.3-46.4,186.6-69.6,279.9c-2.7,11-5.6,21.9-8.1,33c-0.9,4.1-2.8,5.7-7.2,5.7c-21-0.2-42-0.2-63,0
			c-4.7,0-6.8-1.6-7.7-6.4c-9.8-53.5-20-106.9-29.8-160.4c-4.8-26-9.2-52-13.8-78C675.1,414.4,674.8,414.3,674.5,414.3z"/>
		<path fill="#202E18" d="M218.2,597.2c0-105.5,0-209.5,0-313.8c1.7-0.2,3.3-0.6,4.8-0.7c24.8-1.4,49.6-2.6,73.8,4.9
			c37,11.5,60.6,36.6,73.3,72.6c6.1,17.2,8.8,35,10,53.2c2,30.3-0.1,60.2-8.4,89.4c-9,31.7-25,58.8-53.7,76.8
			c-17.1,10.8-36,16.6-56.1,17.4C247.6,597.6,233.1,597.2,218.2,597.2z"/>
	</g>
</g>
</svg>
