<?xml version="1.0" encoding="utf-8"?>
<!-- Generator: Adobe Illustrator 17.1.0, SVG Export Plug-In . SVG Version: 6.00 Build 0)  -->
<!DOCTYPE svg PUBLIC "-//W3C//DTD SVG 1.1//EN" "http://www.w3.org/Graphics/SVG/1.1/DTD/svg11.dtd">
<svg version="1.1" id="Layer_1" xmlns="http://www.w3.org/2000/svg" xmlns:xlink="http://www.w3.org/1999/xlink" x="0px" y="0px"
	 viewBox="0 0 277 256" enable-background="new 0 0 277 256" xml:space="preserve">
<g>
	<path fill="#2D2355" d="M267,115c0,9.7,0,19.3,0,29c-1,2.3-2.6,4.6-2.8,7c-0.8,12.5-6.4,23.5-12.8,33.5
		C225.7,225,188,243.6,140.5,239c-46.7-4.5-79.9-29.5-96.9-73.5c-15.8-40.9-3.6-87.7,28.7-116.9c27.8-25.2,60.5-35.2,97.2-29.6
		c43.3,6.6,73.9,30.6,90.5,71.4C263.3,98.2,264.7,106.8,267,115z M44.1,102.9c-0.2,1.9-0.5,3.8-0.7,5.9c72.6,0,145,0,217.6,0
		c-0.2-1.5-0.3-2.7-0.6-3.8c-2-7.7-2-7.9-10-7.9c-52.5-0.1-105-0.2-157.5-0.2c-14.3,0-28.6,0.1-43,0.2C44.8,95.7,45,99.9,44.1,102.9
		z M256.8,122.5c-0.8,0-1.7,0-2.5-0.1c-0.7,0.1-1.3,0.2-2,0.2c-63.5,0-126.9-0.1-190.4-0.1c-6.8,0-13.6,0-20.7,0c0,2.7,0,4.5,0,6.3
		c0,1.9,0,3.8,0,5.7c74.3,0,147.8,0,221.2,0c0-4.1,0-7.7,0-11.2C260.4,123,258.6,122.7,256.8,122.5z M82,161.1
		c2,3.8,3.6,7.9,6.1,11.3c13.1,17.2,30.2,28,52,31c26.5,3.6,49.4-3.7,68.2-22.5c5.6-5.6,9.2-13.1,13.7-19.8
		c10.5-0.2,21-0.3,31.4-0.6c1.7,0,4.3-0.6,4.8-1.7c1.4-3.2,1.9-6.8,2.9-10.5c-73.3,0-145.7,0-218.2,0c0.6,2.2,1.2,4.2,1.5,6.1
		c0.8,4.3,2.7,6.3,7.6,6.2C62,160.3,72,160.8,82,161.1z"/>
	<path fill="#FDFDFC" d="M267,115c-2.3-8.2-3.7-16.8-6.9-24.6c-16.6-40.8-47.2-64.8-90.5-71.4c-36.8-5.6-69.5,4.4-97.2,29.6
		c-32.3,29.2-44.4,76-28.7,116.9c17,44,50.2,69,96.9,73.5c47.5,4.6,85.1-14,110.9-54.4c6.4-10,12-21,12.8-33.5
		c0.2-2.4,1.8-4.7,2.8-7c0,37.7,0,75.3,0,113c-85.3,0-170.7,0-256,0c0-37.7,0-75.3,0-113c0.5,1.5,1.2,2.9,1.6,4.4
		c9.2,44.2,35.8,73.3,77.5,89.1c13,4.9,26.6,6.8,41.9,6.9c-60.1-16.3-99.8-51.3-100.2-114.7c-0.4-65,39.9-100.5,99.9-116.8
		c-7.4,0.5-14.9,1-22.3,2.2c-46.3,7.1-85,43-95.7,88.6c-0.8,3.5-1.8,6.9-2.7,10.4c0-37.7,0-75.3,0-113c85.3,0,170.7,0,256,0
		C267,39,267,77,267,115z"/>
	<path fill="#F69522" d="M11,114c0.9-3.4,1.9-6.9,2.7-10.4C24.4,58.1,63.1,22.1,109.4,15c7.4-1.1,14.8-1.6,22.3-2.2
		C71.8,29.2,31.4,64.7,31.8,129.7c0.4,63.5,40.1,98.5,100.2,114.7c-15.2-0.1-28.9-2-41.9-6.9c-41.8-15.7-68.3-44.9-77.5-89.1
		c-0.3-1.5-1-3-1.6-4.4C11,134,11,124,11,114z"/>
	<path fill="#3F3179" d="M222,161.1c-4.5,6.6-8.1,14.2-13.7,19.8c-18.8,18.8-41.7,26.2-68.2,22.5c-21.8-3-38.9-13.7-52-31
		c-2.6-3.4-4.1-7.5-6.1-11.3c1.7-0.1,3.3-0.2,5-0.2c43.4,0,86.7,0,130.1,0C218.7,160.8,220.4,161,222,161.1z"/>
	<path fill="#FDFDFC" d="M256.8,122.5c1.8,0.3,3.6,0.5,5.6,0.8c0,3.5,0,7.1,0,11.2c-73.4,0-146.9,0-221.2,0c0-1.9,0-3.8,0-5.7
		c0-1.8,0-3.7,0-6.3c7,0,13.8,0,20.7,0c63.5,0,126.9,0.1,190.4,0.1c0.7,0,1.3-0.1,2-0.2C255.1,122.4,256,122.4,256.8,122.5z"/>
	<path fill="#FDFDFC" d="M222,161.1c-1.7-0.1-3.3-0.2-5-0.2c-43.4,0-86.7,0-130.1,0c-1.7,0-3.3,0.2-5,0.2c-10-0.2-20-0.8-29.9-0.5
		c-4.9,0.1-6.9-1.9-7.6-6.2c-0.4-2-1-3.9-1.5-6.1c72.5,0,145,0,218.2,0c-1,3.8-1.5,7.3-2.9,10.5c-0.5,1.1-3.1,1.6-4.8,1.7
		C243,160.8,232.5,160.9,222,161.1z"/>
	<path fill="#FDFDFC" d="M50,97c14.3-0.1,28.6-0.2,43-0.2c52.5,0,105,0.1,157.5,0.2c8,0,8,0.2,10,7.9c0.3,1.1,0.3,2.3,0.6,3.8
		c-72.6,0-145,0-217.6,0c0.3-2.2,0.5-4,0.7-5.9C46.1,100.9,48,99,50,97z"/>
	<path fill="#3F3179" d="M50,97c-2,2-3.9,3.9-5.9,5.8C45,99.9,44.8,95.7,50,97z"/>
	<path fill="#3F3179" d="M256.8,122.5c-0.8,0-1.7,0-2.5-0.1C255.1,122.4,255.9,122.4,256.8,122.5z"/>
</g>
</svg>
