<?xml version="1.0" encoding="utf-8"?>
<!-- Generator: Adobe Illustrator 17.1.0, SVG Export Plug-In . SVG Version: 6.00 Build 0)  -->
<!DOCTYPE svg PUBLIC "-//W3C//DTD SVG 1.1//EN" "http://www.w3.org/Graphics/SVG/1.1/DTD/svg11.dtd">
<svg version="1.1" id="Layer_1" xmlns="http://www.w3.org/2000/svg" xmlns:xlink="http://www.w3.org/1999/xlink" x="0px" y="0px"
	 viewBox="0 0 162 162" enable-background="new 0 0 162 162" xml:space="preserve">
<g>
	<path fill="#353B63" d="M0,116.4c0-27,0-54,0-81C8,30.1,15.6,24,24,19.6C37.6,12.5,51.9,6.5,65.8,0c6.8,0,13.5,0,20.3,0
		c15.1,6.3,29.9,13.8,45.5,18.7c19.1,5.9,26.5,17.4,25.4,37.1c-4.5,82,8.1,67.7-69.8,104c-0.6,0.3-0.7,1.5-1.1,2.2
		c-6.8,0-13.5,0-20.3,0C43.9,146.8,21.9,131.6,0,116.4z M75.7,146.9c3.4-0.2,6.7-0.4,10.1-0.5c14.2-6.7,29-12.3,42.3-20.5
		c6-3.7,11.9-11.9,12.6-18.7c1.7-17.2,0.5-34.6,0.5-51.9c-3.1-6.7-6.3-13.3-9.4-20c-36.4-30-73-23.1-109.7-0.6
		c-1.8,6.9-3.6,13.7-5.5,20.6c-4.4,65.2-3,67.8,48.9,87.3C68.8,144,72.2,145.5,75.7,146.9z"/>
	<path fill="#F9F9FA" d="M86.1,162c0.3-0.8,0.5-1.9,1.1-2.2c77.9-36.3,65.3-22,69.8-104c1.1-19.7-6.3-31.2-25.4-37.1
		C116,13.8,101.2,6.3,86.1,0c25.3,0,50.6,0,75.9,0c0,54,0,108,0,162C136.7,162,111.4,162,86.1,162z"/>
	<path fill="#F9F9FA" d="M0,116.4c21.9,15.2,43.9,30.4,65.8,45.6c-21.9,0-43.9,0-65.8,0C0,146.8,0,131.6,0,116.4z"/>
	<path fill="#F9F9FA" d="M65.8,0C51.9,6.5,37.6,12.5,24,19.6C15.6,24,8,30.1,0,35.4C0,23.6,0,11.8,0,0C21.9,0,43.9,0,65.8,0z"/>
	<path fill="#C3DDDA" d="M22,34.8c36.7-22.5,73.3-29.5,109.7,0.6C112.3,43.9,92.8,52.4,73.4,61C56.3,52.2,39.1,43.5,22,34.8z"/>
	<path fill="#7392C5" d="M65.4,142.6c-51.8-19.5-53.3-22-48.9-87.3C43.2,64.4,65.8,104.7,65.4,142.6z"/>
	<path fill="#ABBCC4" d="M141.1,55.3c0,17.3,1.3,34.8-0.5,51.9c-0.7,6.7-6.7,15-12.6,18.7c-13.3,8.1-28.1,13.8-42.3,20.5
		c0.4-8.1,0.7-16.2,1.1-24.4c11.6-20.4,23.1-40.8,34.7-61.2l0-0.1c1.8-1.5,3.5-2.9,5.3-4.4C131.6,56,136.3,55.6,141.1,55.3z"/>
	<path fill="#86A6E4" d="M65.4,142.6c0.4-37.9-22.2-78.2-48.9-87.3c1.8-6.9,3.6-13.7,5.5-20.6C39.1,43.5,56.3,52.2,73.4,61
		c0.8,28.6,1.5,57.3,2.2,85.9C72.2,145.5,68.8,144,65.4,142.6z"/>
	<path fill="#E1F2FB" d="M75.7,146.9c-0.7-28.6-1.5-57.3-2.2-85.9c19.4-8.5,38.8-17.1,58.3-25.6c3.1,6.7,6.3,13.3,9.4,20
		c-4.7,0.3-9.5,0.7-14.2,1c-1.8,1.5-3.5,2.9-5.3,4.4c0,0,0,0.1,0,0.1C91.1,68.2,85.4,78.3,86.9,122c-0.4,8.1-0.7,16.2-1.1,24.4
		C82.4,146.5,79,146.7,75.7,146.9z"/>
	<path fill="#C3DDDA" d="M86.9,122c-1.5-43.7,4.3-53.8,34.7-61.2C110,81.2,98.4,101.6,86.9,122z"/>
	<path fill="#C3DDDA" d="M121.6,60.7c1.8-1.5,3.5-2.9,5.3-4.4C125.1,57.8,123.3,59.3,121.6,60.7z"/>
</g>
</svg>
